<svg width="58" height="58" viewBox="0 0 58 58" fill="none" xmlns="http://www.w3.org/2000/svg">
<path fill-rule="evenodd" clip-rule="evenodd" d="M45.538 38.9473C48.2461 34.8076 50 29.8894 50 25C50 11.1929 38.8071 0 25 0C11.1929 0 0 11.1929 0 25C0 38.8071 11.1929 50 25 50C30.4804 50 34.6194 49.183 38.6908 46.2422L32.0196 39.5711L39.0907 32.5L45.538 38.9473ZM25 10C16.8538 10.1381 10.5 16.8526 10.5 25C10.5 33.1474 16.8538 39.8619 25 40C33.2831 40.1404 40 33.2843 40 25C40 16.7157 33.2831 9.85961 25 10Z" fill="white"/>
<path d="M38.6908 46.2422L32.0196 39.5711L39.0907 32.5L45.538 38.9473C43.7159 41.7326 41.462 44.1655 39.0196 46C38.9101 46.0823 38.8005 46.163 38.6908 46.2422Z" fill="white"/>
<path d="M35.5725 42.5528C38.0148 40.7183 40.2688 38.2855 42.0909 35.5001C42.0909 35.5001 48.0726 41.5528 53.3213 46.7305C58.5699 51.9082 51.7757 59.4112 46.2502 53.8016C40.7246 48.192 35.2437 42.7951 35.2437 42.7951C35.3533 42.7159 35.4629 42.6351 35.5725 42.5528Z" fill="white"/>
</svg>
